<mxfile host="app.diagrams.net" modified="2023-11-27T19:45:16.791Z" agent="Mozilla/5.0 (Windows NT 10.0; Win64; x64) AppleWebKit/537.36 (KHTML, like Gecko) Chrome/119.0.0.0 Safari/537.36" etag="gGzo88L8P9orVipg06uM" version="22.1.4" type="github">
  <diagram id="C5RBs43oDa-KdzZeNtuy" name="Page-1">
    <mxGraphModel dx="5027" dy="3337" grid="1" gridSize="10" guides="1" tooltips="1" connect="1" arrows="1" fold="1" page="1" pageScale="1" pageWidth="827" pageHeight="1169" math="0" shadow="0">
      <root>
        <mxCell id="WIyWlLk6GJQsqaUBKTNV-0" />
        <mxCell id="WIyWlLk6GJQsqaUBKTNV-1" parent="WIyWlLk6GJQsqaUBKTNV-0" />
        <mxCell id="h-g9YpSLfmPs8XxW5c05-0" value="CITY" style="rounded=0;whiteSpace=wrap;html=1;" vertex="1" parent="WIyWlLk6GJQsqaUBKTNV-1">
          <mxGeometry x="100" y="190" width="120" height="60" as="geometry" />
        </mxCell>
        <mxCell id="h-g9YpSLfmPs8XxW5c05-12" style="edgeStyle=orthogonalEdgeStyle;rounded=0;orthogonalLoop=1;jettySize=auto;html=1;exitX=1;exitY=1;exitDx=0;exitDy=0;entryX=0.25;entryY=0;entryDx=0;entryDy=0;" edge="1" parent="WIyWlLk6GJQsqaUBKTNV-1" source="h-g9YpSLfmPs8XxW5c05-1" target="h-g9YpSLfmPs8XxW5c05-0">
          <mxGeometry relative="1" as="geometry" />
        </mxCell>
        <mxCell id="h-g9YpSLfmPs8XxW5c05-1" value="COUNTRYCODE" style="ellipse;whiteSpace=wrap;html=1;" vertex="1" parent="WIyWlLk6GJQsqaUBKTNV-1">
          <mxGeometry x="-70" y="-90" width="140" height="50" as="geometry" />
        </mxCell>
        <mxCell id="h-g9YpSLfmPs8XxW5c05-13" style="edgeStyle=orthogonalEdgeStyle;rounded=0;orthogonalLoop=1;jettySize=auto;html=1;exitX=1;exitY=0.5;exitDx=0;exitDy=0;entryX=0;entryY=0.25;entryDx=0;entryDy=0;" edge="1" parent="WIyWlLk6GJQsqaUBKTNV-1" source="h-g9YpSLfmPs8XxW5c05-2" target="h-g9YpSLfmPs8XxW5c05-0">
          <mxGeometry relative="1" as="geometry" />
        </mxCell>
        <mxCell id="h-g9YpSLfmPs8XxW5c05-2" value="DISTRICT" style="ellipse;whiteSpace=wrap;html=1;" vertex="1" parent="WIyWlLk6GJQsqaUBKTNV-1">
          <mxGeometry x="-140" y="-30" width="140" height="50" as="geometry" />
        </mxCell>
        <mxCell id="h-g9YpSLfmPs8XxW5c05-14" style="edgeStyle=orthogonalEdgeStyle;rounded=0;orthogonalLoop=1;jettySize=auto;html=1;exitX=1;exitY=0.5;exitDx=0;exitDy=0;entryX=0;entryY=0.75;entryDx=0;entryDy=0;" edge="1" parent="WIyWlLk6GJQsqaUBKTNV-1" source="h-g9YpSLfmPs8XxW5c05-3" target="h-g9YpSLfmPs8XxW5c05-0">
          <mxGeometry relative="1" as="geometry" />
        </mxCell>
        <mxCell id="h-g9YpSLfmPs8XxW5c05-3" value="POPULATION" style="ellipse;whiteSpace=wrap;html=1;" vertex="1" parent="WIyWlLk6GJQsqaUBKTNV-1">
          <mxGeometry x="-160" y="40" width="140" height="50" as="geometry" />
        </mxCell>
        <mxCell id="h-g9YpSLfmPs8XxW5c05-15" style="edgeStyle=orthogonalEdgeStyle;rounded=0;orthogonalLoop=1;jettySize=auto;html=1;exitX=1;exitY=0.5;exitDx=0;exitDy=0;" edge="1" parent="WIyWlLk6GJQsqaUBKTNV-1" source="h-g9YpSLfmPs8XxW5c05-4" target="h-g9YpSLfmPs8XxW5c05-0">
          <mxGeometry relative="1" as="geometry" />
        </mxCell>
        <mxCell id="h-g9YpSLfmPs8XxW5c05-4" value="DIRECTION" style="ellipse;whiteSpace=wrap;html=1;" vertex="1" parent="WIyWlLk6GJQsqaUBKTNV-1">
          <mxGeometry x="-150" y="100" width="140" height="50" as="geometry" />
        </mxCell>
        <mxCell id="h-g9YpSLfmPs8XxW5c05-10" style="edgeStyle=orthogonalEdgeStyle;rounded=0;orthogonalLoop=1;jettySize=auto;html=1;exitX=0.5;exitY=1;exitDx=0;exitDy=0;entryX=0.75;entryY=0;entryDx=0;entryDy=0;" edge="1" parent="WIyWlLk6GJQsqaUBKTNV-1" source="h-g9YpSLfmPs8XxW5c05-5" target="h-g9YpSLfmPs8XxW5c05-0">
          <mxGeometry relative="1" as="geometry" />
        </mxCell>
        <mxCell id="h-g9YpSLfmPs8XxW5c05-5" value="ID" style="ellipse;whiteSpace=wrap;html=1;" vertex="1" parent="WIyWlLk6GJQsqaUBKTNV-1">
          <mxGeometry x="200" y="-190" width="140" height="50" as="geometry" />
        </mxCell>
        <mxCell id="h-g9YpSLfmPs8XxW5c05-11" style="edgeStyle=orthogonalEdgeStyle;rounded=0;orthogonalLoop=1;jettySize=auto;html=1;exitX=0.5;exitY=1;exitDx=0;exitDy=0;entryX=0.5;entryY=0;entryDx=0;entryDy=0;" edge="1" parent="WIyWlLk6GJQsqaUBKTNV-1" source="h-g9YpSLfmPs8XxW5c05-6" target="h-g9YpSLfmPs8XxW5c05-0">
          <mxGeometry relative="1" as="geometry" />
        </mxCell>
        <mxCell id="h-g9YpSLfmPs8XxW5c05-6" value="NAME" style="ellipse;whiteSpace=wrap;html=1;" vertex="1" parent="WIyWlLk6GJQsqaUBKTNV-1">
          <mxGeometry x="60" y="-140" width="140" height="50" as="geometry" />
        </mxCell>
        <mxCell id="h-g9YpSLfmPs8XxW5c05-17" style="edgeStyle=orthogonalEdgeStyle;rounded=0;orthogonalLoop=1;jettySize=auto;html=1;exitX=1;exitY=0.5;exitDx=0;exitDy=0;entryX=0.5;entryY=1;entryDx=0;entryDy=0;" edge="1" parent="WIyWlLk6GJQsqaUBKTNV-1" source="h-g9YpSLfmPs8XxW5c05-8" target="h-g9YpSLfmPs8XxW5c05-0">
          <mxGeometry relative="1" as="geometry" />
        </mxCell>
        <mxCell id="h-g9YpSLfmPs8XxW5c05-8" value="NEIGBORHOOD" style="ellipse;whiteSpace=wrap;html=1;" vertex="1" parent="WIyWlLk6GJQsqaUBKTNV-1">
          <mxGeometry x="-110" y="240" width="140" height="50" as="geometry" />
        </mxCell>
        <mxCell id="h-g9YpSLfmPs8XxW5c05-16" style="edgeStyle=orthogonalEdgeStyle;rounded=0;orthogonalLoop=1;jettySize=auto;html=1;exitX=1;exitY=0.5;exitDx=0;exitDy=0;entryX=0;entryY=1;entryDx=0;entryDy=0;" edge="1" parent="WIyWlLk6GJQsqaUBKTNV-1" source="h-g9YpSLfmPs8XxW5c05-9" target="h-g9YpSLfmPs8XxW5c05-0">
          <mxGeometry relative="1" as="geometry" />
        </mxCell>
        <mxCell id="h-g9YpSLfmPs8XxW5c05-9" value="POSTALCODE" style="ellipse;whiteSpace=wrap;html=1;" vertex="1" parent="WIyWlLk6GJQsqaUBKTNV-1">
          <mxGeometry x="-130" y="170" width="140" height="50" as="geometry" />
        </mxCell>
        <mxCell id="h-g9YpSLfmPs8XxW5c05-18" value="COUNTRY" style="rounded=0;whiteSpace=wrap;html=1;" vertex="1" parent="WIyWlLk6GJQsqaUBKTNV-1">
          <mxGeometry x="480" y="360" width="120" height="60" as="geometry" />
        </mxCell>
        <mxCell id="h-g9YpSLfmPs8XxW5c05-58" style="edgeStyle=orthogonalEdgeStyle;rounded=0;orthogonalLoop=1;jettySize=auto;html=1;exitX=0.5;exitY=1;exitDx=0;exitDy=0;entryX=0.25;entryY=0;entryDx=0;entryDy=0;" edge="1" parent="WIyWlLk6GJQsqaUBKTNV-1" source="h-g9YpSLfmPs8XxW5c05-19" target="h-g9YpSLfmPs8XxW5c05-18">
          <mxGeometry relative="1" as="geometry" />
        </mxCell>
        <mxCell id="h-g9YpSLfmPs8XxW5c05-19" value="COUNTRYLANGUAJE" style="ellipse;whiteSpace=wrap;html=1;" vertex="1" parent="WIyWlLk6GJQsqaUBKTNV-1">
          <mxGeometry x="370" y="-100" width="140" height="50" as="geometry" />
        </mxCell>
        <mxCell id="h-g9YpSLfmPs8XxW5c05-59" style="edgeStyle=orthogonalEdgeStyle;rounded=0;orthogonalLoop=1;jettySize=auto;html=1;exitX=0.5;exitY=1;exitDx=0;exitDy=0;entryX=0.5;entryY=0;entryDx=0;entryDy=0;" edge="1" parent="WIyWlLk6GJQsqaUBKTNV-1" source="h-g9YpSLfmPs8XxW5c05-20" target="h-g9YpSLfmPs8XxW5c05-18">
          <mxGeometry relative="1" as="geometry">
            <mxPoint x="540" y="400" as="targetPoint" />
          </mxGeometry>
        </mxCell>
        <mxCell id="h-g9YpSLfmPs8XxW5c05-20" value="NAME" style="ellipse;whiteSpace=wrap;html=1;" vertex="1" parent="WIyWlLk6GJQsqaUBKTNV-1">
          <mxGeometry x="500" y="-150" width="140" height="50" as="geometry" />
        </mxCell>
        <mxCell id="h-g9YpSLfmPs8XxW5c05-60" style="edgeStyle=orthogonalEdgeStyle;rounded=0;orthogonalLoop=1;jettySize=auto;html=1;exitX=0.5;exitY=1;exitDx=0;exitDy=0;entryX=0.75;entryY=0;entryDx=0;entryDy=0;" edge="1" parent="WIyWlLk6GJQsqaUBKTNV-1" source="h-g9YpSLfmPs8XxW5c05-21" target="h-g9YpSLfmPs8XxW5c05-18">
          <mxGeometry relative="1" as="geometry" />
        </mxCell>
        <mxCell id="h-g9YpSLfmPs8XxW5c05-21" value="CONTINENT" style="ellipse;whiteSpace=wrap;html=1;" vertex="1" parent="WIyWlLk6GJQsqaUBKTNV-1">
          <mxGeometry x="650" y="-170" width="140" height="50" as="geometry" />
        </mxCell>
        <mxCell id="h-g9YpSLfmPs8XxW5c05-66" style="edgeStyle=orthogonalEdgeStyle;rounded=0;orthogonalLoop=1;jettySize=auto;html=1;exitX=0;exitY=0.5;exitDx=0;exitDy=0;entryX=0;entryY=0;entryDx=0;entryDy=0;" edge="1" parent="WIyWlLk6GJQsqaUBKTNV-1" source="h-g9YpSLfmPs8XxW5c05-22" target="h-g9YpSLfmPs8XxW5c05-18">
          <mxGeometry relative="1" as="geometry" />
        </mxCell>
        <mxCell id="h-g9YpSLfmPs8XxW5c05-22" value="GNP" style="ellipse;whiteSpace=wrap;html=1;" vertex="1" parent="WIyWlLk6GJQsqaUBKTNV-1">
          <mxGeometry x="1110" y="160" width="140" height="50" as="geometry" />
        </mxCell>
        <mxCell id="h-g9YpSLfmPs8XxW5c05-65" style="edgeStyle=orthogonalEdgeStyle;rounded=0;orthogonalLoop=1;jettySize=auto;html=1;exitX=0;exitY=0.5;exitDx=0;exitDy=0;entryX=0;entryY=0.25;entryDx=0;entryDy=0;" edge="1" parent="WIyWlLk6GJQsqaUBKTNV-1" source="h-g9YpSLfmPs8XxW5c05-23" target="h-g9YpSLfmPs8XxW5c05-18">
          <mxGeometry relative="1" as="geometry" />
        </mxCell>
        <mxCell id="h-g9YpSLfmPs8XxW5c05-23" value="LIFEEXPECTANCY" style="ellipse;whiteSpace=wrap;html=1;" vertex="1" parent="WIyWlLk6GJQsqaUBKTNV-1">
          <mxGeometry x="1080" y="100" width="140" height="50" as="geometry" />
        </mxCell>
        <mxCell id="h-g9YpSLfmPs8XxW5c05-64" style="edgeStyle=orthogonalEdgeStyle;rounded=0;orthogonalLoop=1;jettySize=auto;html=1;exitX=0;exitY=0.5;exitDx=0;exitDy=0;entryX=1;entryY=0.75;entryDx=0;entryDy=0;" edge="1" parent="WIyWlLk6GJQsqaUBKTNV-1" source="h-g9YpSLfmPs8XxW5c05-24" target="h-g9YpSLfmPs8XxW5c05-18">
          <mxGeometry relative="1" as="geometry" />
        </mxCell>
        <mxCell id="h-g9YpSLfmPs8XxW5c05-24" value="POPULATION" style="ellipse;whiteSpace=wrap;html=1;" vertex="1" parent="WIyWlLk6GJQsqaUBKTNV-1">
          <mxGeometry x="1030" y="20" width="140" height="50" as="geometry" />
        </mxCell>
        <mxCell id="h-g9YpSLfmPs8XxW5c05-63" style="edgeStyle=orthogonalEdgeStyle;rounded=0;orthogonalLoop=1;jettySize=auto;html=1;exitX=0;exitY=0.5;exitDx=0;exitDy=0;entryX=1;entryY=0.25;entryDx=0;entryDy=0;" edge="1" parent="WIyWlLk6GJQsqaUBKTNV-1" source="h-g9YpSLfmPs8XxW5c05-25" target="h-g9YpSLfmPs8XxW5c05-18">
          <mxGeometry relative="1" as="geometry">
            <mxPoint x="730" y="460" as="targetPoint" />
          </mxGeometry>
        </mxCell>
        <mxCell id="h-g9YpSLfmPs8XxW5c05-25" value="INDEPYEAR" style="ellipse;whiteSpace=wrap;html=1;" vertex="1" parent="WIyWlLk6GJQsqaUBKTNV-1">
          <mxGeometry x="980" y="-60" width="140" height="50" as="geometry" />
        </mxCell>
        <mxCell id="h-g9YpSLfmPs8XxW5c05-62" style="edgeStyle=orthogonalEdgeStyle;rounded=0;orthogonalLoop=1;jettySize=auto;html=1;exitX=0;exitY=1;exitDx=0;exitDy=0;entryX=1;entryY=0.5;entryDx=0;entryDy=0;" edge="1" parent="WIyWlLk6GJQsqaUBKTNV-1" source="h-g9YpSLfmPs8XxW5c05-26" target="h-g9YpSLfmPs8XxW5c05-18">
          <mxGeometry relative="1" as="geometry" />
        </mxCell>
        <mxCell id="h-g9YpSLfmPs8XxW5c05-26" value="SURFACEAREA" style="ellipse;whiteSpace=wrap;html=1;" vertex="1" parent="WIyWlLk6GJQsqaUBKTNV-1">
          <mxGeometry x="910" y="-120" width="140" height="50" as="geometry" />
        </mxCell>
        <mxCell id="h-g9YpSLfmPs8XxW5c05-61" style="edgeStyle=orthogonalEdgeStyle;rounded=0;orthogonalLoop=1;jettySize=auto;html=1;exitX=0.5;exitY=1;exitDx=0;exitDy=0;" edge="1" parent="WIyWlLk6GJQsqaUBKTNV-1" source="h-g9YpSLfmPs8XxW5c05-27">
          <mxGeometry relative="1" as="geometry">
            <mxPoint x="600" y="410" as="targetPoint" />
          </mxGeometry>
        </mxCell>
        <mxCell id="h-g9YpSLfmPs8XxW5c05-27" value="REGION" style="ellipse;whiteSpace=wrap;html=1;" vertex="1" parent="WIyWlLk6GJQsqaUBKTNV-1">
          <mxGeometry x="800" y="-160" width="140" height="50" as="geometry" />
        </mxCell>
        <mxCell id="h-g9YpSLfmPs8XxW5c05-75" style="edgeStyle=orthogonalEdgeStyle;rounded=0;orthogonalLoop=1;jettySize=auto;html=1;exitX=0;exitY=0.5;exitDx=0;exitDy=0;entryX=0.5;entryY=1;entryDx=0;entryDy=0;" edge="1" parent="WIyWlLk6GJQsqaUBKTNV-1" source="h-g9YpSLfmPs8XxW5c05-29" target="h-g9YpSLfmPs8XxW5c05-18">
          <mxGeometry relative="1" as="geometry" />
        </mxCell>
        <mxCell id="h-g9YpSLfmPs8XxW5c05-29" value="HEADOFSTATE" style="ellipse;whiteSpace=wrap;html=1;" vertex="1" parent="WIyWlLk6GJQsqaUBKTNV-1">
          <mxGeometry x="1190" y="470" width="140" height="50" as="geometry" />
        </mxCell>
        <mxCell id="h-g9YpSLfmPs8XxW5c05-74" style="edgeStyle=orthogonalEdgeStyle;rounded=0;orthogonalLoop=1;jettySize=auto;html=1;exitX=0;exitY=0.5;exitDx=0;exitDy=0;entryX=1;entryY=1;entryDx=0;entryDy=0;" edge="1" parent="WIyWlLk6GJQsqaUBKTNV-1" source="h-g9YpSLfmPs8XxW5c05-30" target="h-g9YpSLfmPs8XxW5c05-18">
          <mxGeometry relative="1" as="geometry" />
        </mxCell>
        <mxCell id="h-g9YpSLfmPs8XxW5c05-30" value="GOVERNMENTFORM" style="ellipse;whiteSpace=wrap;html=1;" vertex="1" parent="WIyWlLk6GJQsqaUBKTNV-1">
          <mxGeometry x="1150" y="390" width="140" height="50" as="geometry" />
        </mxCell>
        <mxCell id="h-g9YpSLfmPs8XxW5c05-31" value="LOCALNAME" style="ellipse;whiteSpace=wrap;html=1;" vertex="1" parent="WIyWlLk6GJQsqaUBKTNV-1">
          <mxGeometry x="1140" y="310" width="140" height="50" as="geometry" />
        </mxCell>
        <mxCell id="h-g9YpSLfmPs8XxW5c05-72" style="edgeStyle=orthogonalEdgeStyle;rounded=0;orthogonalLoop=1;jettySize=auto;html=1;exitX=0;exitY=0.5;exitDx=0;exitDy=0;entryX=1;entryY=0.5;entryDx=0;entryDy=0;" edge="1" parent="WIyWlLk6GJQsqaUBKTNV-1" source="h-g9YpSLfmPs8XxW5c05-32" target="h-g9YpSLfmPs8XxW5c05-18">
          <mxGeometry relative="1" as="geometry" />
        </mxCell>
        <mxCell id="h-g9YpSLfmPs8XxW5c05-32" value="GNPPOLD" style="ellipse;whiteSpace=wrap;html=1;" vertex="1" parent="WIyWlLk6GJQsqaUBKTNV-1">
          <mxGeometry x="1130" y="240" width="140" height="50" as="geometry" />
        </mxCell>
        <mxCell id="h-g9YpSLfmPs8XxW5c05-76" style="edgeStyle=orthogonalEdgeStyle;rounded=0;orthogonalLoop=1;jettySize=auto;html=1;exitX=0;exitY=0.5;exitDx=0;exitDy=0;entryX=1;entryY=0;entryDx=0;entryDy=0;" edge="1" parent="WIyWlLk6GJQsqaUBKTNV-1" source="h-g9YpSLfmPs8XxW5c05-34" target="h-g9YpSLfmPs8XxW5c05-18">
          <mxGeometry relative="1" as="geometry" />
        </mxCell>
        <mxCell id="h-g9YpSLfmPs8XxW5c05-34" value="CAPITAL" style="ellipse;whiteSpace=wrap;html=1;" vertex="1" parent="WIyWlLk6GJQsqaUBKTNV-1">
          <mxGeometry x="1180" y="570" width="140" height="50" as="geometry" />
        </mxCell>
        <mxCell id="h-g9YpSLfmPs8XxW5c05-71" style="edgeStyle=orthogonalEdgeStyle;rounded=0;orthogonalLoop=1;jettySize=auto;html=1;exitX=0.5;exitY=0;exitDx=0;exitDy=0;entryX=1;entryY=1;entryDx=0;entryDy=0;" edge="1" parent="WIyWlLk6GJQsqaUBKTNV-1" source="h-g9YpSLfmPs8XxW5c05-35" target="h-g9YpSLfmPs8XxW5c05-18">
          <mxGeometry relative="1" as="geometry" />
        </mxCell>
        <mxCell id="h-g9YpSLfmPs8XxW5c05-35" value="CODE2" style="ellipse;whiteSpace=wrap;html=1;" vertex="1" parent="WIyWlLk6GJQsqaUBKTNV-1">
          <mxGeometry x="1060" y="640" width="140" height="50" as="geometry" />
        </mxCell>
        <mxCell id="h-g9YpSLfmPs8XxW5c05-70" style="edgeStyle=orthogonalEdgeStyle;rounded=0;orthogonalLoop=1;jettySize=auto;html=1;exitX=0.5;exitY=0;exitDx=0;exitDy=0;entryX=0.75;entryY=1;entryDx=0;entryDy=0;" edge="1" parent="WIyWlLk6GJQsqaUBKTNV-1" source="h-g9YpSLfmPs8XxW5c05-36" target="h-g9YpSLfmPs8XxW5c05-18">
          <mxGeometry relative="1" as="geometry" />
        </mxCell>
        <mxCell id="h-g9YpSLfmPs8XxW5c05-36" value="INFRAESTRUCTURE" style="ellipse;whiteSpace=wrap;html=1;" vertex="1" parent="WIyWlLk6GJQsqaUBKTNV-1">
          <mxGeometry x="950" y="690" width="140" height="50" as="geometry" />
        </mxCell>
        <mxCell id="h-g9YpSLfmPs8XxW5c05-69" style="edgeStyle=orthogonalEdgeStyle;rounded=0;orthogonalLoop=1;jettySize=auto;html=1;exitX=0.5;exitY=0;exitDx=0;exitDy=0;entryX=0.5;entryY=1;entryDx=0;entryDy=0;" edge="1" parent="WIyWlLk6GJQsqaUBKTNV-1" source="h-g9YpSLfmPs8XxW5c05-37" target="h-g9YpSLfmPs8XxW5c05-18">
          <mxGeometry relative="1" as="geometry" />
        </mxCell>
        <mxCell id="h-g9YpSLfmPs8XxW5c05-37" value="DEMOGRAPHY" style="ellipse;whiteSpace=wrap;html=1;" vertex="1" parent="WIyWlLk6GJQsqaUBKTNV-1">
          <mxGeometry x="827" y="740" width="140" height="50" as="geometry" />
        </mxCell>
        <mxCell id="h-g9YpSLfmPs8XxW5c05-68" style="edgeStyle=orthogonalEdgeStyle;rounded=0;orthogonalLoop=1;jettySize=auto;html=1;exitX=0.5;exitY=0;exitDx=0;exitDy=0;entryX=0.25;entryY=1;entryDx=0;entryDy=0;" edge="1" parent="WIyWlLk6GJQsqaUBKTNV-1" source="h-g9YpSLfmPs8XxW5c05-38" target="h-g9YpSLfmPs8XxW5c05-18">
          <mxGeometry relative="1" as="geometry" />
        </mxCell>
        <mxCell id="h-g9YpSLfmPs8XxW5c05-38" value="CULTURE" style="ellipse;whiteSpace=wrap;html=1;" vertex="1" parent="WIyWlLk6GJQsqaUBKTNV-1">
          <mxGeometry x="700" y="780" width="140" height="50" as="geometry" />
        </mxCell>
        <mxCell id="h-g9YpSLfmPs8XxW5c05-67" style="edgeStyle=orthogonalEdgeStyle;rounded=0;orthogonalLoop=1;jettySize=auto;html=1;exitX=0.5;exitY=0;exitDx=0;exitDy=0;entryX=0;entryY=1;entryDx=0;entryDy=0;" edge="1" parent="WIyWlLk6GJQsqaUBKTNV-1" source="h-g9YpSLfmPs8XxW5c05-39" target="h-g9YpSLfmPs8XxW5c05-18">
          <mxGeometry relative="1" as="geometry" />
        </mxCell>
        <mxCell id="h-g9YpSLfmPs8XxW5c05-39" value="ID_IBFK_2" style="ellipse;whiteSpace=wrap;html=1;" vertex="1" parent="WIyWlLk6GJQsqaUBKTNV-1">
          <mxGeometry x="570" y="830" width="140" height="50" as="geometry" />
        </mxCell>
        <mxCell id="h-g9YpSLfmPs8XxW5c05-41" value="COUNTRYLANGUAJE" style="rounded=0;whiteSpace=wrap;html=1;" vertex="1" parent="WIyWlLk6GJQsqaUBKTNV-1">
          <mxGeometry x="110" y="530" width="150" height="60" as="geometry" />
        </mxCell>
        <mxCell id="h-g9YpSLfmPs8XxW5c05-50" style="edgeStyle=orthogonalEdgeStyle;rounded=0;orthogonalLoop=1;jettySize=auto;html=1;exitX=1;exitY=0.5;exitDx=0;exitDy=0;entryX=0;entryY=0.25;entryDx=0;entryDy=0;" edge="1" parent="WIyWlLk6GJQsqaUBKTNV-1" source="h-g9YpSLfmPs8XxW5c05-42" target="h-g9YpSLfmPs8XxW5c05-41">
          <mxGeometry relative="1" as="geometry" />
        </mxCell>
        <mxCell id="h-g9YpSLfmPs8XxW5c05-42" value="COUNTRYCODE" style="ellipse;whiteSpace=wrap;html=1;" vertex="1" parent="WIyWlLk6GJQsqaUBKTNV-1">
          <mxGeometry x="-310" y="460" width="140" height="50" as="geometry" />
        </mxCell>
        <mxCell id="h-g9YpSLfmPs8XxW5c05-51" style="edgeStyle=orthogonalEdgeStyle;rounded=0;orthogonalLoop=1;jettySize=auto;html=1;exitX=1;exitY=0.5;exitDx=0;exitDy=0;entryX=0;entryY=0.5;entryDx=0;entryDy=0;" edge="1" parent="WIyWlLk6GJQsqaUBKTNV-1" source="h-g9YpSLfmPs8XxW5c05-43" target="h-g9YpSLfmPs8XxW5c05-41">
          <mxGeometry relative="1" as="geometry">
            <mxPoint x="50" y="550" as="targetPoint" />
          </mxGeometry>
        </mxCell>
        <mxCell id="h-g9YpSLfmPs8XxW5c05-43" value="LANGUAJE" style="ellipse;whiteSpace=wrap;html=1;" vertex="1" parent="WIyWlLk6GJQsqaUBKTNV-1">
          <mxGeometry x="-413" y="535" width="140" height="50" as="geometry" />
        </mxCell>
        <mxCell id="h-g9YpSLfmPs8XxW5c05-52" style="edgeStyle=orthogonalEdgeStyle;rounded=0;orthogonalLoop=1;jettySize=auto;html=1;exitX=1;exitY=0.5;exitDx=0;exitDy=0;entryX=1;entryY=1;entryDx=0;entryDy=0;" edge="1" parent="WIyWlLk6GJQsqaUBKTNV-1" source="h-g9YpSLfmPs8XxW5c05-44" target="h-g9YpSLfmPs8XxW5c05-41">
          <mxGeometry relative="1" as="geometry" />
        </mxCell>
        <mxCell id="h-g9YpSLfmPs8XxW5c05-44" value="ISOFICIAL" style="ellipse;whiteSpace=wrap;html=1;" vertex="1" parent="WIyWlLk6GJQsqaUBKTNV-1">
          <mxGeometry x="-400" y="620" width="140" height="50" as="geometry" />
        </mxCell>
        <mxCell id="h-g9YpSLfmPs8XxW5c05-53" style="edgeStyle=orthogonalEdgeStyle;rounded=0;orthogonalLoop=1;jettySize=auto;html=1;exitX=1;exitY=0.5;exitDx=0;exitDy=0;entryX=0.75;entryY=1;entryDx=0;entryDy=0;" edge="1" parent="WIyWlLk6GJQsqaUBKTNV-1" source="h-g9YpSLfmPs8XxW5c05-45" target="h-g9YpSLfmPs8XxW5c05-41">
          <mxGeometry relative="1" as="geometry" />
        </mxCell>
        <mxCell id="h-g9YpSLfmPs8XxW5c05-45" value="PERCENTAGE" style="ellipse;whiteSpace=wrap;html=1;" vertex="1" parent="WIyWlLk6GJQsqaUBKTNV-1">
          <mxGeometry x="-380" y="690" width="140" height="50" as="geometry" />
        </mxCell>
        <mxCell id="h-g9YpSLfmPs8XxW5c05-54" style="edgeStyle=orthogonalEdgeStyle;rounded=0;orthogonalLoop=1;jettySize=auto;html=1;exitX=1;exitY=0.5;exitDx=0;exitDy=0;entryX=0.5;entryY=1;entryDx=0;entryDy=0;" edge="1" parent="WIyWlLk6GJQsqaUBKTNV-1" source="h-g9YpSLfmPs8XxW5c05-46" target="h-g9YpSLfmPs8XxW5c05-41">
          <mxGeometry relative="1" as="geometry" />
        </mxCell>
        <mxCell id="h-g9YpSLfmPs8XxW5c05-46" value="VARIATIONS" style="ellipse;whiteSpace=wrap;html=1;" vertex="1" parent="WIyWlLk6GJQsqaUBKTNV-1">
          <mxGeometry x="-380" y="760" width="140" height="50" as="geometry" />
        </mxCell>
        <mxCell id="h-g9YpSLfmPs8XxW5c05-47" value="DIALECTS" style="ellipse;whiteSpace=wrap;html=1;" vertex="1" parent="WIyWlLk6GJQsqaUBKTNV-1">
          <mxGeometry x="-340" y="840" width="140" height="50" as="geometry" />
        </mxCell>
        <mxCell id="h-g9YpSLfmPs8XxW5c05-56" style="edgeStyle=orthogonalEdgeStyle;rounded=0;orthogonalLoop=1;jettySize=auto;html=1;exitX=1;exitY=0.5;exitDx=0;exitDy=0;entryX=0.25;entryY=1;entryDx=0;entryDy=0;" edge="1" parent="WIyWlLk6GJQsqaUBKTNV-1" source="h-g9YpSLfmPs8XxW5c05-48" target="h-g9YpSLfmPs8XxW5c05-41">
          <mxGeometry relative="1" as="geometry" />
        </mxCell>
        <mxCell id="h-g9YpSLfmPs8XxW5c05-48" value="MORPHOLOGY" style="ellipse;whiteSpace=wrap;html=1;" vertex="1" parent="WIyWlLk6GJQsqaUBKTNV-1">
          <mxGeometry x="-260" y="910" width="140" height="50" as="geometry" />
        </mxCell>
        <mxCell id="h-g9YpSLfmPs8XxW5c05-49" value="COUNTRYLANGUAJE_IBFK_1" style="ellipse;whiteSpace=wrap;html=1;" vertex="1" parent="WIyWlLk6GJQsqaUBKTNV-1">
          <mxGeometry x="-120" y="950" width="200" height="50" as="geometry" />
        </mxCell>
        <mxCell id="h-g9YpSLfmPs8XxW5c05-55" style="edgeStyle=orthogonalEdgeStyle;rounded=0;orthogonalLoop=1;jettySize=auto;html=1;exitX=1;exitY=0.5;exitDx=0;exitDy=0;entryX=0.345;entryY=1.01;entryDx=0;entryDy=0;entryPerimeter=0;" edge="1" parent="WIyWlLk6GJQsqaUBKTNV-1" source="h-g9YpSLfmPs8XxW5c05-47" target="h-g9YpSLfmPs8XxW5c05-41">
          <mxGeometry relative="1" as="geometry" />
        </mxCell>
        <mxCell id="h-g9YpSLfmPs8XxW5c05-57" style="edgeStyle=orthogonalEdgeStyle;rounded=0;orthogonalLoop=1;jettySize=auto;html=1;exitX=0.5;exitY=0;exitDx=0;exitDy=0;entryX=0.1;entryY=1.037;entryDx=0;entryDy=0;entryPerimeter=0;" edge="1" parent="WIyWlLk6GJQsqaUBKTNV-1" source="h-g9YpSLfmPs8XxW5c05-49" target="h-g9YpSLfmPs8XxW5c05-41">
          <mxGeometry relative="1" as="geometry" />
        </mxCell>
        <mxCell id="h-g9YpSLfmPs8XxW5c05-73" style="edgeStyle=orthogonalEdgeStyle;rounded=0;orthogonalLoop=1;jettySize=auto;html=1;exitX=0;exitY=0.5;exitDx=0;exitDy=0;entryX=0.881;entryY=0.013;entryDx=0;entryDy=0;entryPerimeter=0;" edge="1" parent="WIyWlLk6GJQsqaUBKTNV-1" source="h-g9YpSLfmPs8XxW5c05-31" target="h-g9YpSLfmPs8XxW5c05-18">
          <mxGeometry relative="1" as="geometry" />
        </mxCell>
      </root>
    </mxGraphModel>
  </diagram>
</mxfile>
